PathFileType	4	(X/Y/Z)	H:\MAC\Pilotos\Biomecanica2_gait_2020\Trimmed_walk1.trc
DataRate	CameraRate	NumFrames	NumMarkers	Units	OrigDataRate	OrigDataStartFrame	OrigNumFrames
150.00	150.00	       11	28	mm	150.00	1	       364
Frame#	Time	R.ASIS			L.ASIS			R.PSIS			L.PSIS			L.Iliac.Crest			R.Iliac.Crest			R.GTR			R.Knee			R.HF			R.TT			R.Ankle			R.Heel			R.MT1			R.MT5			L.GTR			L.Knee			L.HF			L.TT			L.Ankle			L.Heel			L.MT1			L.MT5			R.Knee.Medial			R.Ankle.Medial			R.MT2			L.Knee.Medial			L.Ankle.Medial			L.MT2			
		X1	Y1	Z1	X2	Y2	Z2	X3	Y3	Z3	X4	Y4	Z4	X5	Y5	Z5	X6	Y6	Z6	X7	Y7	Z7	X8	Y8	Z8	X9	Y9	Z9	X10	Y10	Z10	X11	Y11	Z11	X12	Y12	Z12	X13	Y13	Z13	X14	Y14	Z14	X15	Y15	Z15	X16	Y16	Z16	X17	Y17	Z17	X18	Y18	Z18	X19	Y19	Z19	X20	Y20	Z20	X21	Y21	Z21	X22	Y22	Z22	X23	Y23	Z23	X24	Y24	Z24	X25	Y25	Z25	X26	Y26	Z26	X27	Y27	Z27	X28	Y28	Z28	

1	0.000	-148.01762	1039.82568	-479.70297	-165.59230	1043.43579	-249.11992	-342.91183	1070.82031	-409.47119	-349.49673	1068.72742	-312.69211	-250.51807	1102.07837	-206.19182	-234.57323	1098.59375	-524.34283	-245.83846	961.29199	-546.55579	-255.79147	532.41669	-490.22989	-264.38300	466.43085	-492.95825	-205.54659	441.17126	-432.11685	-301.28769	65.57490	-460.16425	-362.08615	39.20155	-418.36057	-142.72862	39.80573	-379.35187	-176.95258	30.71825	-465.42957	-227.42245	948.45520	-180.34286	-100.22778	552.32080	-202.10417	-119.41836	496.05573	-198.39572	-56.02262	451.12250	-243.74776	-286.98132	148.39119	-251.80154	-342.42682	133.80049	-314.84158	-142.36369	55.67089	-296.47946	-196.02545	62.77237	-227.70319	-264.36984	526.76428	-353.09634	-293.84683	85.50406	-368.62680	-143.27815	33.90321	-412.11783	-62.73432	545.29724	-324.15155	-236.93883	148.70401	-333.78357	-150.98511	51.09216	-261.88306	
2	0.007	-141.05809	1038.86096	-479.91260	-158.07912	1042.95398	-249.25714	-336.11624	1070.18091	-408.99951	-342.49344	1068.31250	-312.26169	-242.98048	1101.71924	-206.03625	-227.93822	1097.52466	-524.21478	-239.77771	960.44354	-545.98053	-253.44006	532.58398	-490.72580	-261.96625	466.40384	-492.80585	-203.63072	440.54904	-432.37863	-301.22522	65.64343	-460.07147	-362.03732	39.45324	-418.15430	-144.40456	40.55253	-380.30188	-177.05898	30.57697	-465.32114	-219.54980	948.66351	-179.99130	-89.26369	552.85480	-202.13394	-107.88914	495.94165	-198.35228	-43.39774	452.73712	-243.77263	-263.33463	141.93518	-250.85811	-318.19354	125.24349	-313.64810	-115.09065	54.23033	-295.23621	-169.17473	59.94724	-226.79289	-261.07782	526.38116	-352.91104	-293.62900	85.56059	-368.57883	-143.20592	33.83531	-412.20993	-53.44533	546.18732	-324.15967	-213.44147	143.99673	-332.99954	-123.44051	50.21395	-260.25900	
3	0.013	-134.33243	1037.89453	-479.98895	-150.41426	1042.24048	-249.17113	-329.32193	1069.53455	-408.50323	-335.40445	1067.83447	-311.76822	-235.45377	1101.22961	-205.82573	-221.88368	1096.24512	-524.13831	-233.54326	959.64288	-545.89166	-250.42064	532.44110	-490.57965	-259.46823	466.33810	-492.63004	-200.90584	439.99652	-432.57382	-301.17270	65.73118	-459.98755	-361.99332	39.71241	-417.97971	-144.05038	40.72690	-380.10806	-177.03737	30.48330	-465.35526	-211.69553	948.69427	-179.61964	-79.71368	553.10291	-201.87820	-96.92424	495.70444	-197.84862	-31.10159	454.23370	-243.71054	-239.55453	135.56401	-249.42186	-293.95810	116.85810	-312.38330	-88.14369	53.30587	-294.04663	-142.57935	57.49919	-225.69885	-257.58749	526.31281	-352.66510	-294.02917	85.33517	-368.29022	-143.13480	33.77804	-412.32523	-44.44045	546.73712	-324.19919	-189.87225	139.39191	-331.93954	-95.63427	49.80915	-259.60544	
4	0.020	-127.68208	1036.86621	-480.05484	-142.95926	1041.58765	-249.02649	-322.43307	1068.87317	-407.99875	-328.25494	1067.31104	-311.24500	-227.78981	1100.64636	-205.54869	-214.36557	1095.42065	-523.93817	-227.27753	958.77203	-545.30072	-247.26523	532.26099	-490.40588	-256.80936	466.26068	-492.41428	-198.24388	439.47211	-432.72229	-301.09598	65.84041	-459.87766	-361.92340	39.98179	-417.79581	-143.93205	40.67873	-380.20343	-176.89685	30.00133	-465.41312	-203.79607	948.53766	-179.26208	-69.60571	553.40356	-201.76324	-85.77683	495.17569	-198.21217	-19.15129	455.46829	-243.57867	-215.51799	129.38533	-248.07864	-269.32471	108.82371	-310.94766	-60.87493	53.19826	-292.86417	-115.27528	55.00265	-224.57848	-253.78674	526.37701	-352.47229	-293.10318	85.26547	-368.15448	-143.02180	33.67030	-412.35739	-35.51456	546.79456	-323.37360	-166.32227	134.91422	-330.77222	-68.50024	48.90016	-258.70975	
5	0.027	-120.73125	1035.83777	-479.96182	-135.65079	1041.06750	-248.97696	-315.50507	1068.22681	-407.45200	-321.03860	1066.77930	-310.69070	-218.67903	1099.70288	-205.42212	-207.25294	1094.39746	-523.72198	-220.95679	957.95667	-544.73303	-244.01772	532.10645	-490.13562	-254.07622	466.19882	-492.10785	-195.68159	438.79684	-432.63547	-301.00714	65.96683	-459.76459	-361.85129	40.29391	-417.58426	-143.81644	40.64501	-380.28339	-176.72993	30.48206	-465.59842	-195.95538	948.25446	-178.90123	-60.74764	552.99402	-201.66621	-75.17977	494.51996	-198.28253	-7.59983	456.55722	-243.46309	-191.33145	123.39217	-246.61026	-244.55696	100.53896	-309.16217	-33.69553	53.32782	-291.09888	-88.21335	52.83796	-223.48705	-250.04785	526.28809	-352.23270	-292.78882	85.33060	-368.09738	-142.94589	33.62196	-412.44446	-26.12341	546.78931	-323.47037	-142.57544	130.62199	-329.48047	-41.29581	48.46578	-257.67874	
6	0.033	-113.78259	1034.85120	-479.81567	-128.21753	1040.33423	-248.69275	-308.55920	1067.53271	-406.87939	-313.75244	1066.20361	-310.07590	-211.72021	1098.92456	-204.95496	-200.36705	1093.39355	-523.43408	-214.82108	957.15765	-543.79816	-240.66960	531.93616	-489.87375	-251.17688	466.06638	-491.82782	-192.93585	438.26709	-432.60480	-300.87567	66.08650	-459.60950	-361.75766	40.63489	-417.33469	-143.66008	40.59795	-380.36032	-176.71259	30.40649	-465.60510	-188.23306	947.82977	-178.51038	-51.96736	552.95374	-201.89992	-65.18553	493.76453	-198.01923	3.67340	457.49750	-243.35085	-166.99352	117.61726	-244.93494	-220.03523	92.75625	-306.84668	-6.94219	53.71547	-289.89630	-61.11761	51.38389	-221.76030	-246.11623	526.52087	-351.98325	-292.42822	85.38862	-368.00397	-142.86177	33.56794	-412.50351	-16.82795	546.81940	-324.53525	-118.81824	126.51517	-327.90314	-14.06986	48.44751	-256.40012	
7	0.040	-106.57974	1034.00464	-479.50311	-120.74664	1039.61292	-248.40297	-301.45062	1066.88330	-406.25751	-306.36713	1065.61743	-309.46835	-204.76694	1098.10901	-204.44252	-193.30353	1092.41248	-523.08759	-208.20119	956.45081	-543.15509	-237.00763	531.70868	-489.39771	-248.19951	465.99838	-491.49683	-190.07098	437.71484	-432.45837	-300.73331	66.25435	-459.42471	-361.66827	41.06496	-417.04459	-143.64877	40.57496	-380.61783	-176.68915	30.33927	-465.59213	-180.54344	947.31403	-178.11324	-43.35937	552.24841	-202.26636	-54.99878	492.80429	-198.77615	14.66858	458.29074	-243.30820	-142.95970	112.18254	-242.86928	-193.98248	85.26828	-305.28613	19.80593	54.48300	-287.81558	-34.09769	49.81936	-220.23409	-242.03375	526.48370	-351.61826	-292.05225	85.78790	-367.83221	-142.47986	33.27774	-412.18524	-7.64031	546.48627	-324.94022	-95.01282	122.63365	-326.18646	12.92894	48.85726	-254.89842	
8	0.047	-99.44712	1032.88208	-479.32489	-113.38306	1038.77759	-248.00180	-294.24487	1066.23755	-405.65512	-298.96570	1065.04443	-308.88593	-197.70554	1097.25110	-203.87184	-186.16315	1091.43250	-522.69580	-201.39670	955.80023	-542.99713	-233.42473	531.52692	-489.07501	-245.12814	465.90469	-491.16907	-187.17656	437.14178	-432.28180	-300.59344	66.44080	-459.20233	-361.57693	41.49916	-416.69305	-143.09782	40.38171	-380.32623	-176.67262	30.27321	-465.53574	-173.00775	946.73560	-177.69608	-34.46998	552.14374	-203.07500	-45.67546	491.70023	-198.81044	25.36255	458.93414	-243.38509	-117.95743	107.00412	-241.20137	-168.66826	78.05692	-302.97311	46.23764	55.52983	-286.64279	-7.31038	48.96541	-218.60657	-237.24486	526.13440	-351.50238	-291.68286	85.87205	-367.69543	-142.53130	33.30196	-412.40933	1.26361	545.96478	-325.39667	-71.29251	119.11149	-324.37009	39.99075	49.83887	-253.65074	
9	0.053	-92.33226	1031.65723	-479.01620	-105.78262	1037.93909	-247.55055	-286.92712	1065.62134	-405.04611	-291.52939	1064.45239	-308.27701	-190.50197	1096.41211	-203.30420	-178.95804	1090.55615	-522.27679	-194.67847	955.17603	-542.42883	-229.73914	531.33655	-488.74286	-242.02937	465.84720	-490.80634	-184.21309	436.54825	-432.05219	-300.43301	66.65469	-458.98447	-361.47934	41.96237	-416.32471	-143.05856	40.36401	-380.64664	-176.66951	30.21942	-465.48175	-165.38759	946.09161	-177.32159	-27.53024	551.07428	-203.59639	-36.00431	490.33618	-199.71335	35.79195	459.42490	-243.66669	-93.59352	102.33870	-239.16786	-143.38089	71.33784	-300.63120	72.45566	57.08298	-284.91525	19.10127	48.39486	-216.78136	-233.27942	526.24701	-350.97775	-291.31796	85.96688	-367.54745	-142.30107	33.27166	-412.44745	9.83414	545.42529	-326.12082	-47.71590	115.88039	-322.64291	66.35646	50.74106	-251.78601	
10	0.060	-83.97674	1031.06384	-478.38507	-98.33770	1037.12280	-247.08090	-279.44290	1065.00940	-404.44928	-284.01642	1063.81421	-307.64221	-183.23645	1095.56970	-202.74538	-171.64282	1089.74084	-521.78766	-187.93346	954.55176	-541.49829	-226.19098	531.14813	-488.54904	-238.88884	465.75137	-490.43341	-181.21156	435.91412	-431.85757	-300.32278	66.91379	-458.78360	-361.38065	42.49147	-415.95227	-142.80086	40.13158	-380.68823	-176.66557	30.16070	-465.43338	-157.80818	945.37994	-176.88437	-19.91982	549.79388	-204.28719	-27.09958	488.86807	-199.88676	45.95408	459.84363	-244.02245	-69.23418	98.18963	-237.07805	-118.23550	65.44849	-298.22980	98.38639	59.22966	-282.65936	45.32333	48.41295	-214.91910	-229.01947	525.86316	-350.61630	-290.90958	86.08658	-367.40225	-142.34094	33.17482	-412.48956	17.96626	544.48737	-325.87558	-24.33613	113.03697	-320.76935	92.33557	52.38747	-250.00214	
11	0.067	-76.40809	1030.10327	-477.86841	-89.97929	1036.65906	-246.52776	-271.77643	1064.36328	-403.80533	-276.48923	1063.11646	-307.01245	-175.83563	1094.71057	-202.14906	-164.10901	1088.92126	-521.23975	-180.70985	954.02106	-541.31024	-222.42949	530.94971	-488.26285	-235.73340	465.68567	-490.11285	-178.21269	435.31967	-431.67471	-300.21738	67.19219	-458.58072	-361.28030	43.03504	-415.60251	-142.65324	40.08727	-380.74542	-176.65683	30.09845	-465.40210	-150.33826	944.65509	-176.40254	-12.34001	548.80066	-204.93422	-17.91597	487.24417	-200.51540	55.85890	460.14252	-244.54832	-45.27559	94.64337	-234.96605	-93.22720	59.95599	-295.74741	123.65328	61.28474	-280.79861	71.10762	48.84982	-213.02264	-224.92165	525.64606	-350.25699	-290.48584	86.23031	-367.28473	-142.24167	33.11892	-412.55179	25.78308	543.79962	-327.72424	-1.13291	110.94271	-319.65631	117.91824	54.68385	-248.03920	
